<?xml version="1.0" encoding="utf-8" standalone="no"?>
<!DOCTYPE svg PUBLIC "-//W3C//DTD SVG 1.1//EN"
  "http://www.w3.org/Graphics/SVG/1.1/DTD/svg11.dtd">
<svg xmlns:xlink="http://www.w3.org/1999/xlink" width="795.6pt" height="269.837187pt" viewBox="0 0 795.6 269.837187" xmlns="http://www.w3.org/2000/svg" version="1.1">
 <metadata>
  <rdf:RDF xmlns:dc="http://purl.org/dc/elements/1.1/" xmlns:cc="http://creativecommons.org/ns#" xmlns:rdf="http://www.w3.org/1999/02/22-rdf-syntax-ns#">
   <cc:Work>
    <dc:type rdf:resource="http://purl.org/dc/dcmitype/StillImage"/>
    <dc:date>2026-07-13T15:14:14.351579</dc:date>
    <dc:format>image/svg+xml</dc:format>
    <dc:creator>
     <cc:Agent>
      <dc:title>Matplotlib v3.11.0, https://matplotlib.org/</dc:title>
     </cc:Agent>
    </dc:creator>
   </cc:Work>
  </rdf:RDF>
 </metadata>
 <defs>
  <style type="text/css">*{stroke-linejoin: round; stroke-linecap: butt}</style>
 </defs>
 <g id="figure_1">
  <g id="patch_1">
   <path d="M 0 269.837187 
L 795.6 269.837187 
L 795.6 0 
L 0 0 
z
" style="fill: #ffffff"/>
  </g>
  <g id="axes_1">
   <g id="text_1">
    <!-- Sequence 1 : -->
    <g transform="translate(7.2 114.797187) scale(0.13 -0.13)">
     <defs>
      <path id="DejaVuSansMono-Bold-36" d="M 1594 2047 
Q 897 2313 650 2605 
Q 403 2897 403 3391 
Q 403 4025 809 4387 
Q 1216 4750 1925 4750 
Q 2247 4750 2569 4676 
Q 2891 4603 3206 4459 
L 3206 3559 
Q 2909 3769 2603 3878 
Q 2297 3988 1997 3988 
Q 1663 3988 1484 3853 
Q 1306 3719 1306 3469 
Q 1306 3275 1436 3148 
Q 1566 3022 1978 2869 
L 2375 2719 
Q 2938 2513 3203 2172 
Q 3469 1831 3469 1313 
Q 3469 606 3051 257 
Q 2634 -91 1791 -91 
Q 1444 -91 1095 -8 
Q 747 75 422 238 
L 422 1191 
Q 791 928 1136 800 
Q 1481 672 1819 672 
Q 2159 672 2346 826 
Q 2534 981 2534 1259 
Q 2534 1469 2409 1626 
Q 2284 1784 2047 1875 
L 1594 2047 
z
" transform="scale(0.015625)"/>
      <path id="DejaVuSansMono-Bold-48" d="M 3444 172 
Q 3125 41 2794 -25 
Q 2463 -91 2094 -91 
Q 1216 -91 752 379 
Q 288 850 288 1734 
Q 288 2591 734 3087 
Q 1181 3584 1953 3584 
Q 2731 3584 3161 3123 
Q 3591 2663 3591 1825 
L 3591 1453 
L 1219 1453 
Q 1222 1041 1462 837 
Q 1703 634 2181 634 
Q 2497 634 2803 725 
Q 3109 816 3444 1013 
L 3444 172 
z
M 2669 2141 
Q 2663 2503 2483 2689 
Q 2303 2875 1953 2875 
Q 1638 2875 1450 2683 
Q 1263 2491 1228 2138 
L 2669 2141 
z
" transform="scale(0.015625)"/>
      <path id="DejaVuSansMono-Bold-54" d="M 1197 1753 
Q 1197 1247 1365 959 
Q 1534 672 1831 672 
Q 2128 672 2300 959 
Q 2472 1247 2472 1753 
Q 2472 2259 2300 2546 
Q 2128 2834 1831 2834 
Q 1534 2834 1365 2546 
Q 1197 2259 1197 1753 
z
M 2472 494 
Q 2303 200 2079 54 
Q 1856 -91 1575 -91 
Q 953 -91 617 384 
Q 281 859 281 1747 
Q 281 2622 612 3103 
Q 944 3584 1544 3584 
Q 1859 3584 2092 3431 
Q 2325 3278 2472 2975 
L 2472 3500 
L 3384 3500 
L 3384 -1331 
L 2472 -1331 
L 2472 494 
z
" transform="scale(0.015625)"/>
      <path id="DejaVuSansMono-Bold-58" d="M 500 1222 
L 500 3500 
L 1416 3500 
L 1416 1363 
Q 1416 984 1522 821 
Q 1628 659 1875 659 
Q 2122 659 2261 878 
Q 2400 1097 2400 1491 
L 2400 3500 
L 3316 3500 
L 3316 0 
L 2400 0 
L 2400 519 
Q 2303 228 2070 68 
Q 1838 -91 1509 -91 
Q 1009 -91 754 240 
Q 500 572 500 1222 
z
" transform="scale(0.015625)"/>
      <path id="DejaVuSansMono-Bold-51" d="M 3347 2272 
L 3347 0 
L 2438 0 
L 2438 2131 
Q 2438 2513 2330 2677 
Q 2222 2841 1978 2841 
Q 1731 2841 1589 2619 
Q 1447 2397 1447 2003 
L 1447 0 
L 538 0 
L 538 3500 
L 1447 3500 
L 1447 2975 
Q 1544 3266 1778 3425 
Q 2013 3584 2344 3584 
Q 2841 3584 3094 3254 
Q 3347 2925 3347 2272 
z
" transform="scale(0.015625)"/>
      <path id="DejaVuSansMono-Bold-46" d="M 3316 178 
Q 3084 44 2818 -23 
Q 2553 -91 2247 -91 
Q 1438 -91 981 396 
Q 525 884 525 1747 
Q 525 2613 984 3102 
Q 1444 3591 2253 3591 
Q 2534 3591 2795 3525 
Q 3056 3459 3316 3322 
L 3316 2484 
Q 3116 2656 2877 2748 
Q 2638 2841 2381 2841 
Q 1934 2841 1693 2556 
Q 1453 2272 1453 1747 
Q 1453 1222 1693 940 
Q 1934 659 2381 659 
Q 2647 659 2878 748 
Q 3109 838 3316 1019 
L 3316 178 
z
" transform="scale(0.015625)"/>
      <path id="DejaVuSansMono-Bold-3" transform="scale(0.015625)"/>
      <path id="DejaVuSansMono-Bold-14" d="M 588 813 
L 1619 813 
L 1619 3841 
L 659 3603 
L 659 4434 
L 1625 4666 
L 2516 4666 
L 2516 813 
L 3547 813 
L 3547 0 
L 588 0 
L 588 813 
z
" transform="scale(0.015625)"/>
      <path id="DejaVuSansMono-Bold-1d" d="M 1403 3322 
L 2444 3322 
L 2444 2181 
L 1403 2181 
L 1403 3322 
z
M 1403 1147 
L 2444 1147 
L 2444 0 
L 1403 0 
L 1403 1147 
z
" transform="scale(0.015625)"/>
     </defs>
     <use xlink:href="#DejaVuSansMono-Bold-36"/>
     <use xlink:href="#DejaVuSansMono-Bold-48" transform="translate(60.203125 0)"/>
     <use xlink:href="#DejaVuSansMono-Bold-54" transform="translate(120.40625 0)"/>
     <use xlink:href="#DejaVuSansMono-Bold-58" transform="translate(180.609375 0)"/>
     <use xlink:href="#DejaVuSansMono-Bold-48" transform="translate(240.8125 0)"/>
     <use xlink:href="#DejaVuSansMono-Bold-51" transform="translate(301.015625 0)"/>
     <use xlink:href="#DejaVuSansMono-Bold-46" transform="translate(361.21875 0)"/>
     <use xlink:href="#DejaVuSansMono-Bold-48" transform="translate(421.421875 0)"/>
     <use xlink:href="#DejaVuSansMono-Bold-3" transform="translate(481.625 0)"/>
     <use xlink:href="#DejaVuSansMono-Bold-14" transform="translate(541.828125 0)"/>
     <use xlink:href="#DejaVuSansMono-Bold-3" transform="translate(602.03125 0)"/>
     <use xlink:href="#DejaVuSansMono-Bold-1d" transform="translate(662.234375 0)"/>
    </g>
   </g>
   <g id="text_2">
    <!-- Sequence 2 : -->
    <g transform="translate(7.2 188.717187) scale(0.13 -0.13)">
     <defs>
      <path id="DejaVuSansMono-Bold-15" d="M 1356 813 
L 3322 813 
L 3322 0 
L 359 0 
L 359 788 
L 859 1319 
Q 1750 2266 1941 2484 
Q 2175 2753 2278 2961 
Q 2381 3169 2381 3372 
Q 2381 3684 2192 3854 
Q 2003 4025 1656 4025 
Q 1409 4025 1101 3926 
Q 794 3828 459 3641 
L 459 4500 
Q 794 4622 1114 4686 
Q 1434 4750 1728 4750 
Q 2469 4750 2892 4404 
Q 3316 4059 3316 3463 
Q 3316 3188 3223 2947 
Q 3131 2706 2906 2413 
Q 2741 2200 1997 1456 
Q 1594 1053 1356 813 
z
" transform="scale(0.015625)"/>
     </defs>
     <use xlink:href="#DejaVuSansMono-Bold-36"/>
     <use xlink:href="#DejaVuSansMono-Bold-48" transform="translate(60.203125 0)"/>
     <use xlink:href="#DejaVuSansMono-Bold-54" transform="translate(120.40625 0)"/>
     <use xlink:href="#DejaVuSansMono-Bold-58" transform="translate(180.609375 0)"/>
     <use xlink:href="#DejaVuSansMono-Bold-48" transform="translate(240.8125 0)"/>
     <use xlink:href="#DejaVuSansMono-Bold-51" transform="translate(301.015625 0)"/>
     <use xlink:href="#DejaVuSansMono-Bold-46" transform="translate(361.21875 0)"/>
     <use xlink:href="#DejaVuSansMono-Bold-48" transform="translate(421.421875 0)"/>
     <use xlink:href="#DejaVuSansMono-Bold-3" transform="translate(481.625 0)"/>
     <use xlink:href="#DejaVuSansMono-Bold-15" transform="translate(541.828125 0)"/>
     <use xlink:href="#DejaVuSansMono-Bold-3" transform="translate(602.03125 0)"/>
     <use xlink:href="#DejaVuSansMono-Bold-1d" transform="translate(662.234375 0)"/>
    </g>
   </g>
   <g id="text_3">
    <!-- A -->
    <g style="fill: #228b22" transform="translate(236.964706 114.797187) scale(0.16 -0.16)">
     <defs>
      <path id="DejaVuSansMono-Bold-24" d="M 1925 3822 
L 1491 1913 
L 2363 1913 
L 1925 3822 
z
M 1363 4666 
L 2491 4666 
L 3750 0 
L 2828 0 
L 2541 1153 
L 1306 1153 
L 1025 0 
L 103 0 
L 1363 4666 
z
" transform="scale(0.015625)"/>
     </defs>
     <use xlink:href="#DejaVuSansMono-Bold-24"/>
    </g>
   </g>
   <g id="text_4">
    <!-- | -->
    <g style="fill: #228b22" transform="translate(236.964706 151.757187) scale(0.16 -0.16)">
     <defs>
      <path id="DejaVuSansMono-Bold-5f" d="M 2278 4891 
L 2278 -1509 
L 1569 -1509 
L 1569 4891 
L 2278 4891 
z
" transform="scale(0.015625)"/>
     </defs>
     <use xlink:href="#DejaVuSansMono-Bold-5f"/>
    </g>
   </g>
   <g id="text_5">
    <!-- A -->
    <g style="fill: #228b22" transform="translate(236.964706 188.717187) scale(0.16 -0.16)">
     <use xlink:href="#DejaVuSansMono-Bold-24"/>
    </g>
   </g>
   <g id="text_6">
    <!-- C -->
    <g style="fill: #228b22" transform="translate(282.917647 114.797187) scale(0.16 -0.16)">
     <defs>
      <path id="DejaVuSansMono-Bold-26" d="M 3378 134 
Q 3159 22 2918 -34 
Q 2678 -91 2413 -91 
Q 1469 -91 972 531 
Q 475 1153 475 2328 
Q 475 3506 972 4128 
Q 1469 4750 2413 4750 
Q 2678 4750 2922 4694 
Q 3166 4638 3378 4525 
L 3378 3500 
Q 3141 3719 2917 3820 
Q 2694 3922 2456 3922 
Q 1950 3922 1692 3520 
Q 1434 3119 1434 2328 
Q 1434 1541 1692 1139 
Q 1950 738 2456 738 
Q 2694 738 2917 839 
Q 3141 941 3378 1159 
L 3378 134 
z
" transform="scale(0.015625)"/>
     </defs>
     <use xlink:href="#DejaVuSansMono-Bold-26"/>
    </g>
   </g>
   <g id="text_7">
    <!-- | -->
    <g style="fill: #228b22" transform="translate(282.917647 151.757187) scale(0.16 -0.16)">
     <use xlink:href="#DejaVuSansMono-Bold-5f"/>
    </g>
   </g>
   <g id="text_8">
    <!-- C -->
    <g style="fill: #228b22" transform="translate(282.917647 188.717187) scale(0.16 -0.16)">
     <use xlink:href="#DejaVuSansMono-Bold-26"/>
    </g>
   </g>
   <g id="text_9">
    <!-- T -->
    <g style="fill: #228b22" transform="translate(328.870588 114.797187) scale(0.16 -0.16)">
     <defs>
      <path id="DejaVuSansMono-Bold-37" d="M 2388 0 
L 1466 0 
L 1466 3859 
L 281 3859 
L 281 4666 
L 3572 4666 
L 3572 3859 
L 2388 3859 
L 2388 0 
z
" transform="scale(0.015625)"/>
     </defs>
     <use xlink:href="#DejaVuSansMono-Bold-37"/>
    </g>
   </g>
   <g id="text_10">
    <!-- | -->
    <g style="fill: #228b22" transform="translate(328.870588 151.757187) scale(0.16 -0.16)">
     <use xlink:href="#DejaVuSansMono-Bold-5f"/>
    </g>
   </g>
   <g id="text_11">
    <!-- T -->
    <g style="fill: #228b22" transform="translate(328.870588 188.717187) scale(0.16 -0.16)">
     <use xlink:href="#DejaVuSansMono-Bold-37"/>
    </g>
   </g>
   <g id="text_12">
    <!-- G -->
    <g style="fill: #ff8c00" transform="translate(374.823529 114.797187) scale(0.16 -0.16)">
     <defs>
      <path id="DejaVuSansMono-Bold-2a" d="M 2725 844 
L 2725 1734 
L 2094 1734 
L 2094 2509 
L 3531 2509 
L 3531 372 
Q 3266 144 2945 26 
Q 2625 -91 2259 -91 
Q 1353 -91 859 539 
Q 366 1169 366 2328 
Q 366 3506 864 4128 
Q 1363 4750 2303 4750 
Q 2584 4750 2856 4670 
Q 3128 4591 3366 4441 
L 3366 3419 
Q 3172 3669 2920 3795 
Q 2669 3922 2369 3922 
Q 1844 3922 1584 3526 
Q 1325 3131 1325 2328 
Q 1325 1550 1575 1144 
Q 1825 738 2303 738 
Q 2447 738 2553 764 
Q 2659 791 2725 844 
z
" transform="scale(0.015625)"/>
     </defs>
     <use xlink:href="#DejaVuSansMono-Bold-2a"/>
    </g>
   </g>
   <g id="text_13">
    <!-- . -->
    <g style="fill: #ff8c00" transform="translate(374.823529 151.757187) scale(0.16 -0.16)">
     <defs>
      <path id="DejaVuSansMono-Bold-11" d="M 1403 1147 
L 2444 1147 
L 2444 0 
L 1403 0 
L 1403 1147 
z
" transform="scale(0.015625)"/>
     </defs>
     <use xlink:href="#DejaVuSansMono-Bold-11"/>
    </g>
   </g>
   <g id="text_14">
    <!-- T -->
    <g style="fill: #ff8c00" transform="translate(374.823529 188.717187) scale(0.16 -0.16)">
     <use xlink:href="#DejaVuSansMono-Bold-37"/>
    </g>
   </g>
   <g id="text_15">
    <!-- A -->
    <g style="fill: #228b22" transform="translate(420.776471 114.797187) scale(0.16 -0.16)">
     <use xlink:href="#DejaVuSansMono-Bold-24"/>
    </g>
   </g>
   <g id="text_16">
    <!-- | -->
    <g style="fill: #228b22" transform="translate(420.776471 151.757187) scale(0.16 -0.16)">
     <use xlink:href="#DejaVuSansMono-Bold-5f"/>
    </g>
   </g>
   <g id="text_17">
    <!-- A -->
    <g style="fill: #228b22" transform="translate(420.776471 188.717187) scale(0.16 -0.16)">
     <use xlink:href="#DejaVuSansMono-Bold-24"/>
    </g>
   </g>
   <g id="text_18">
    <!-- C -->
    <g style="fill: #228b22" transform="translate(466.729412 114.797187) scale(0.16 -0.16)">
     <use xlink:href="#DejaVuSansMono-Bold-26"/>
    </g>
   </g>
   <g id="text_19">
    <!-- | -->
    <g style="fill: #228b22" transform="translate(466.729412 151.757187) scale(0.16 -0.16)">
     <use xlink:href="#DejaVuSansMono-Bold-5f"/>
    </g>
   </g>
   <g id="text_20">
    <!-- C -->
    <g style="fill: #228b22" transform="translate(466.729412 188.717187) scale(0.16 -0.16)">
     <use xlink:href="#DejaVuSansMono-Bold-26"/>
    </g>
   </g>
   <g id="text_21">
    <!-- T -->
    <g style="fill: #228b22" transform="translate(512.682353 114.797187) scale(0.16 -0.16)">
     <use xlink:href="#DejaVuSansMono-Bold-37"/>
    </g>
   </g>
   <g id="text_22">
    <!-- | -->
    <g style="fill: #228b22" transform="translate(512.682353 151.757187) scale(0.16 -0.16)">
     <use xlink:href="#DejaVuSansMono-Bold-5f"/>
    </g>
   </g>
   <g id="text_23">
    <!-- T -->
    <g style="fill: #228b22" transform="translate(512.682353 188.717187) scale(0.16 -0.16)">
     <use xlink:href="#DejaVuSansMono-Bold-37"/>
    </g>
   </g>
   <g id="text_24">
    <!-- G -->
    <g style="fill: #228b22" transform="translate(558.635294 114.797187) scale(0.16 -0.16)">
     <use xlink:href="#DejaVuSansMono-Bold-2a"/>
    </g>
   </g>
   <g id="text_25">
    <!-- | -->
    <g style="fill: #228b22" transform="translate(558.635294 151.757187) scale(0.16 -0.16)">
     <use xlink:href="#DejaVuSansMono-Bold-5f"/>
    </g>
   </g>
   <g id="text_26">
    <!-- G -->
    <g style="fill: #228b22" transform="translate(558.635294 188.717187) scale(0.16 -0.16)">
     <use xlink:href="#DejaVuSansMono-Bold-2a"/>
    </g>
   </g>
   <g id="text_27">
    <!-- A -->
    <g style="fill: #228b22" transform="translate(604.588235 114.797187) scale(0.16 -0.16)">
     <use xlink:href="#DejaVuSansMono-Bold-24"/>
    </g>
   </g>
   <g id="text_28">
    <!-- | -->
    <g style="fill: #228b22" transform="translate(604.588235 151.757187) scale(0.16 -0.16)">
     <use xlink:href="#DejaVuSansMono-Bold-5f"/>
    </g>
   </g>
   <g id="text_29">
    <!-- A -->
    <g style="fill: #228b22" transform="translate(604.588235 188.717187) scale(0.16 -0.16)">
     <use xlink:href="#DejaVuSansMono-Bold-24"/>
    </g>
   </g>
   <g id="text_30">
    <!-- Identity : 88.89% -->
    <g transform="translate(7.2 233.069187) scale(0.12 -0.12)">
     <defs>
      <path id="DejaVuSansMono-2c" d="M 628 4666 
L 3219 4666 
L 3219 4134 
L 2241 4134 
L 2241 531 
L 3219 531 
L 3219 0 
L 628 0 
L 628 531 
L 1606 531 
L 1606 4134 
L 628 4134 
L 628 4666 
z
" transform="scale(0.015625)"/>
      <path id="DejaVuSansMono-47" d="M 2681 3053 
L 2681 4863 
L 3256 4863 
L 3256 0 
L 2681 0 
L 2681 441 
Q 2538 181 2298 45 
Q 2059 -91 1747 -91 
Q 1113 -91 748 401 
Q 384 894 384 1759 
Q 384 2613 750 3098 
Q 1116 3584 1747 3584 
Q 2063 3584 2303 3448 
Q 2544 3313 2681 3053 
z
M 991 1747 
Q 991 1078 1203 737 
Q 1416 397 1831 397 
Q 2247 397 2464 740 
Q 2681 1084 2681 1747 
Q 2681 2413 2464 2755 
Q 2247 3097 1831 3097 
Q 1416 3097 1203 2756 
Q 991 2416 991 1747 
z
" transform="scale(0.015625)"/>
      <path id="DejaVuSansMono-48" d="M 3475 1894 
L 3475 1613 
L 984 1613 
L 984 1594 
Q 984 1022 1282 709 
Q 1581 397 2125 397 
Q 2400 397 2700 484 
Q 3000 572 3341 750 
L 3341 178 
Q 3013 44 2708 -23 
Q 2403 -91 2119 -91 
Q 1303 -91 843 398 
Q 384 888 384 1747 
Q 384 2584 834 3084 
Q 1284 3584 2034 3584 
Q 2703 3584 3089 3131 
Q 3475 2678 3475 1894 
z
M 2900 2063 
Q 2888 2569 2661 2833 
Q 2434 3097 2009 3097 
Q 1594 3097 1325 2822 
Q 1056 2547 1006 2059 
L 2900 2063 
z
" transform="scale(0.015625)"/>
      <path id="DejaVuSansMono-51" d="M 3284 2169 
L 3284 0 
L 2706 0 
L 2706 2169 
Q 2706 2641 2540 2862 
Q 2375 3084 2022 3084 
Q 1619 3084 1401 2798 
Q 1184 2513 1184 1978 
L 1184 0 
L 609 0 
L 609 3500 
L 1184 3500 
L 1184 2975 
Q 1338 3275 1600 3429 
Q 1863 3584 2222 3584 
Q 2756 3584 3020 3232 
Q 3284 2881 3284 2169 
z
" transform="scale(0.015625)"/>
      <path id="DejaVuSansMono-57" d="M 1919 4494 
L 1919 3500 
L 3225 3500 
L 3225 3053 
L 1919 3053 
L 1919 1153 
Q 1919 766 2066 612 
Q 2213 459 2578 459 
L 3225 459 
L 3225 0 
L 2522 0 
Q 1875 0 1609 259 
Q 1344 519 1344 1153 
L 1344 3053 
L 409 3053 
L 409 3500 
L 1344 3500 
L 1344 4494 
L 1919 4494 
z
" transform="scale(0.015625)"/>
      <path id="DejaVuSansMono-4c" d="M 800 3500 
L 2272 3500 
L 2272 447 
L 3413 447 
L 3413 0 
L 556 0 
L 556 447 
L 1697 447 
L 1697 3053 
L 800 3053 
L 800 3500 
z
M 1697 4863 
L 2272 4863 
L 2272 4134 
L 1697 4134 
L 1697 4863 
z
" transform="scale(0.015625)"/>
      <path id="DejaVuSansMono-5c" d="M 2681 1125 
Q 2538 759 2316 163 
Q 2006 -663 1900 -844 
Q 1756 -1088 1540 -1209 
Q 1325 -1331 1038 -1331 
L 575 -1331 
L 575 -850 
L 916 -850 
Q 1169 -850 1312 -703 
Q 1456 -556 1678 56 
L 325 3500 
L 934 3500 
L 1972 763 
L 2994 3500 
L 3603 3500 
L 2681 1125 
z
" transform="scale(0.015625)"/>
      <path id="DejaVuSansMono-3" transform="scale(0.015625)"/>
      <path id="DejaVuSansMono-1d" d="M 1528 3322 
L 2316 3322 
L 2316 2375 
L 1528 2375 
L 1528 3322 
z
M 1528 953 
L 2316 953 
L 2316 0 
L 1528 0 
L 1528 953 
z
" transform="scale(0.015625)"/>
      <path id="DejaVuSansMono-1b" d="M 1925 2216 
Q 1503 2216 1273 1980 
Q 1044 1744 1044 1313 
Q 1044 881 1276 642 
Q 1509 403 1925 403 
Q 2350 403 2579 639 
Q 2809 875 2809 1313 
Q 2809 1741 2576 1978 
Q 2344 2216 1925 2216 
z
M 1375 2478 
Q 972 2581 745 2862 
Q 519 3144 519 3541 
Q 519 4097 897 4423 
Q 1275 4750 1925 4750 
Q 2578 4750 2956 4423 
Q 3334 4097 3334 3541 
Q 3334 3144 3107 2862 
Q 2881 2581 2478 2478 
Q 2947 2375 3195 2062 
Q 3444 1750 3444 1253 
Q 3444 622 3041 265 
Q 2638 -91 1925 -91 
Q 1213 -91 811 264 
Q 409 619 409 1247 
Q 409 1747 657 2061 
Q 906 2375 1375 2478 
z
M 1147 3481 
Q 1147 3106 1347 2909 
Q 1547 2713 1925 2713 
Q 2306 2713 2506 2909 
Q 2706 3106 2706 3481 
Q 2706 3863 2507 4063 
Q 2309 4263 1925 4263 
Q 1547 4263 1347 4061 
Q 1147 3859 1147 3481 
z
" transform="scale(0.015625)"/>
      <path id="DejaVuSansMono-11" d="M 1528 953 
L 2316 953 
L 2316 0 
L 1528 0 
L 1528 953 
z
" transform="scale(0.015625)"/>
      <path id="DejaVuSansMono-1c" d="M 1863 2069 
Q 2266 2069 2495 2359 
Q 2725 2650 2725 3163 
Q 2725 3675 2495 3965 
Q 2266 4256 1863 4256 
Q 1444 4256 1231 3979 
Q 1019 3703 1019 3163 
Q 1019 2619 1230 2344 
Q 1441 2069 1863 2069 
z
M 738 97 
L 738 678 
Q 934 563 1156 502 
Q 1378 441 1619 441 
Q 2219 441 2526 892 
Q 2834 1344 2834 2222 
Q 2688 1909 2422 1742 
Q 2156 1575 1813 1575 
Q 1138 1575 767 1990 
Q 397 2406 397 3169 
Q 397 3922 776 4336 
Q 1156 4750 1850 4750 
Q 2663 4750 3041 4165 
Q 3419 3581 3419 2328 
Q 3419 1150 2964 529 
Q 2509 -91 1644 -91 
Q 1416 -91 1184 -42 
Q 953 6 738 97 
z
" transform="scale(0.015625)"/>
      <path id="DejaVuSansMono-8" d="M 2175 997 
Q 2175 753 2339 587 
Q 2503 422 2747 422 
Q 2988 422 3155 589 
Q 3322 756 3322 997 
Q 3322 1238 3153 1406 
Q 2984 1575 2747 1575 
Q 2503 1575 2339 1409 
Q 2175 1244 2175 997 
z
M 1753 997 
Q 1753 1419 2040 1708 
Q 2328 1997 2747 1997 
Q 2947 1997 3126 1922 
Q 3306 1847 3450 1703 
Q 3594 1556 3672 1375 
Q 3750 1194 3750 997 
Q 3750 581 3459 290 
Q 3169 0 2747 0 
Q 2322 0 2037 286 
Q 1753 572 1753 997 
z
M 378 1453 
L 269 1753 
L 3525 3059 
L 3653 2759 
L 378 1453 
z
M 525 3475 
Q 525 3228 689 3064 
Q 853 2900 1100 2900 
Q 1341 2900 1509 3067 
Q 1678 3234 1678 3475 
Q 1678 3716 1509 3883 
Q 1341 4050 1100 4050 
Q 859 4050 692 3884 
Q 525 3719 525 3475 
z
M 103 3475 
Q 103 3897 390 4186 
Q 678 4475 1100 4475 
Q 1300 4475 1483 4400 
Q 1666 4325 1806 4184 
Q 1947 4044 2023 3861 
Q 2100 3678 2100 3475 
Q 2100 3056 1809 2767 
Q 1519 2478 1100 2478 
Q 678 2478 390 2765 
Q 103 3053 103 3475 
z
" transform="scale(0.015625)"/>
     </defs>
     <use xlink:href="#DejaVuSansMono-2c"/>
     <use xlink:href="#DejaVuSansMono-47" transform="translate(60.203125 0)"/>
     <use xlink:href="#DejaVuSansMono-48" transform="translate(120.40625 0)"/>
     <use xlink:href="#DejaVuSansMono-51" transform="translate(180.609375 0)"/>
     <use xlink:href="#DejaVuSansMono-57" transform="translate(240.8125 0)"/>
     <use xlink:href="#DejaVuSansMono-4c" transform="translate(301.015625 0)"/>
     <use xlink:href="#DejaVuSansMono-57" transform="translate(361.21875 0)"/>
     <use xlink:href="#DejaVuSansMono-5c" transform="translate(421.421875 0)"/>
     <use xlink:href="#DejaVuSansMono-3" transform="translate(481.625 0)"/>
     <use xlink:href="#DejaVuSansMono-1d" transform="translate(541.828125 0)"/>
     <use xlink:href="#DejaVuSansMono-3" transform="translate(602.03125 0)"/>
     <use xlink:href="#DejaVuSansMono-1b" transform="translate(662.234375 0)"/>
     <use xlink:href="#DejaVuSansMono-1b" transform="translate(722.4375 0)"/>
     <use xlink:href="#DejaVuSansMono-11" transform="translate(782.640625 0)"/>
     <use xlink:href="#DejaVuSansMono-1b" transform="translate(842.84375 0)"/>
     <use xlink:href="#DejaVuSansMono-1c" transform="translate(903.046875 0)"/>
     <use xlink:href="#DejaVuSansMono-8" transform="translate(963.25 0)"/>
    </g>
   </g>
   <g id="text_31">
    <!-- Matches : 8 -->
    <g transform="translate(7.2 251.549187) scale(0.12 -0.12)">
     <defs>
      <path id="DejaVuSansMono-30" d="M 269 4666 
L 1113 4666 
L 1919 2291 
L 2731 4666 
L 3578 4666 
L 3578 0 
L 2994 0 
L 2994 4122 
L 2163 1663 
L 1684 1663 
L 850 4122 
L 850 0 
L 269 0 
L 269 4666 
z
" transform="scale(0.015625)"/>
      <path id="DejaVuSansMono-44" d="M 2194 1759 
L 2003 1759 
Q 1500 1759 1245 1582 
Q 991 1406 991 1056 
Q 991 741 1181 566 
Q 1372 391 1709 391 
Q 2184 391 2456 720 
Q 2728 1050 2731 1631 
L 2731 1759 
L 2194 1759 
z
M 3309 1997 
L 3309 0 
L 2731 0 
L 2731 519 
Q 2547 206 2267 57 
Q 1988 -91 1588 -91 
Q 1053 -91 734 211 
Q 416 513 416 1019 
Q 416 1603 808 1906 
Q 1200 2209 1959 2209 
L 2731 2209 
L 2731 2300 
Q 2728 2719 2518 2908 
Q 2309 3097 1850 3097 
Q 1556 3097 1256 3012 
Q 956 2928 672 2766 
L 672 3341 
Q 991 3463 1283 3523 
Q 1575 3584 1850 3584 
Q 2284 3584 2592 3456 
Q 2900 3328 3091 3072 
Q 3209 2916 3259 2686 
Q 3309 2456 3309 1997 
z
" transform="scale(0.015625)"/>
      <path id="DejaVuSansMono-46" d="M 3316 178 
Q 3084 44 2839 -23 
Q 2594 -91 2338 -91 
Q 1525 -91 1067 396 
Q 609 884 609 1747 
Q 609 2609 1067 3096 
Q 1525 3584 2338 3584 
Q 2591 3584 2831 3518 
Q 3072 3453 3316 3316 
L 3316 2713 
Q 3088 2916 2858 3006 
Q 2628 3097 2338 3097 
Q 1797 3097 1506 2747 
Q 1216 2397 1216 1747 
Q 1216 1100 1508 748 
Q 1800 397 2338 397 
Q 2638 397 2875 489 
Q 3113 581 3316 775 
L 3316 178 
z
" transform="scale(0.015625)"/>
      <path id="DejaVuSansMono-4b" d="M 3284 2169 
L 3284 0 
L 2706 0 
L 2706 2169 
Q 2706 2641 2540 2862 
Q 2375 3084 2022 3084 
Q 1619 3084 1401 2798 
Q 1184 2513 1184 1978 
L 1184 0 
L 609 0 
L 609 4863 
L 1184 4863 
L 1184 2975 
Q 1338 3275 1600 3429 
Q 1863 3584 2222 3584 
Q 2756 3584 3020 3232 
Q 3284 2881 3284 2169 
z
" transform="scale(0.015625)"/>
      <path id="DejaVuSansMono-56" d="M 3041 3378 
L 3041 2816 
Q 2794 2959 2544 3031 
Q 2294 3103 2034 3103 
Q 1644 3103 1451 2976 
Q 1259 2850 1259 2591 
Q 1259 2356 1403 2240 
Q 1547 2125 2119 2016 
L 2350 1972 
Q 2778 1891 2998 1647 
Q 3219 1403 3219 1013 
Q 3219 494 2850 201 
Q 2481 -91 1825 -91 
Q 1566 -91 1281 -36 
Q 997 19 666 128 
L 666 722 
Q 988 556 1281 473 
Q 1575 391 1838 391 
Q 2219 391 2428 545 
Q 2638 700 2638 978 
Q 2638 1378 1872 1531 
L 1847 1538 
L 1631 1581 
Q 1134 1678 906 1908 
Q 678 2138 678 2534 
Q 678 3038 1018 3311 
Q 1359 3584 1991 3584 
Q 2272 3584 2531 3532 
Q 2791 3481 3041 3378 
z
" transform="scale(0.015625)"/>
     </defs>
     <use xlink:href="#DejaVuSansMono-30"/>
     <use xlink:href="#DejaVuSansMono-44" transform="translate(60.203125 0)"/>
     <use xlink:href="#DejaVuSansMono-57" transform="translate(120.40625 0)"/>
     <use xlink:href="#DejaVuSansMono-46" transform="translate(180.609375 0)"/>
     <use xlink:href="#DejaVuSansMono-4b" transform="translate(240.8125 0)"/>
     <use xlink:href="#DejaVuSansMono-48" transform="translate(301.015625 0)"/>
     <use xlink:href="#DejaVuSansMono-56" transform="translate(361.21875 0)"/>
     <use xlink:href="#DejaVuSansMono-3" transform="translate(421.421875 0)"/>
     <use xlink:href="#DejaVuSansMono-1d" transform="translate(481.625 0)"/>
     <use xlink:href="#DejaVuSansMono-3" transform="translate(541.828125 0)"/>
     <use xlink:href="#DejaVuSansMono-1b" transform="translate(602.03125 0)"/>
    </g>
   </g>
   <g id="text_32">
    <!-- Mismatches : 1 -->
    <g transform="translate(282.917647 251.549187) scale(0.12 -0.12)">
     <defs>
      <path id="DejaVuSansMono-50" d="M 2113 3144 
Q 2219 3369 2383 3476 
Q 2547 3584 2778 3584 
Q 3200 3584 3373 3257 
Q 3547 2931 3547 2028 
L 3547 0 
L 3022 0 
L 3022 2003 
Q 3022 2744 2939 2923 
Q 2856 3103 2638 3103 
Q 2388 3103 2295 2911 
Q 2203 2719 2203 2003 
L 2203 0 
L 1678 0 
L 1678 2003 
Q 1678 2753 1589 2928 
Q 1500 3103 1269 3103 
Q 1041 3103 952 2911 
Q 863 2719 863 2003 
L 863 0 
L 341 0 
L 341 3500 
L 863 3500 
L 863 3200 
Q 966 3388 1120 3486 
Q 1275 3584 1472 3584 
Q 1709 3584 1867 3475 
Q 2025 3366 2113 3144 
z
" transform="scale(0.015625)"/>
      <path id="DejaVuSansMono-14" d="M 844 531 
L 1825 531 
L 1825 4097 
L 769 3859 
L 769 4434 
L 1819 4666 
L 2450 4666 
L 2450 531 
L 3419 531 
L 3419 0 
L 844 0 
L 844 531 
z
" transform="scale(0.015625)"/>
     </defs>
     <use xlink:href="#DejaVuSansMono-30"/>
     <use xlink:href="#DejaVuSansMono-4c" transform="translate(60.203125 0)"/>
     <use xlink:href="#DejaVuSansMono-56" transform="translate(120.40625 0)"/>
     <use xlink:href="#DejaVuSansMono-50" transform="translate(180.609375 0)"/>
     <use xlink:href="#DejaVuSansMono-44" transform="translate(240.8125 0)"/>
     <use xlink:href="#DejaVuSansMono-57" transform="translate(301.015625 0)"/>
     <use xlink:href="#DejaVuSansMono-46" transform="translate(361.21875 0)"/>
     <use xlink:href="#DejaVuSansMono-4b" transform="translate(421.421875 0)"/>
     <use xlink:href="#DejaVuSansMono-48" transform="translate(481.625 0)"/>
     <use xlink:href="#DejaVuSansMono-56" transform="translate(541.828125 0)"/>
     <use xlink:href="#DejaVuSansMono-3" transform="translate(602.03125 0)"/>
     <use xlink:href="#DejaVuSansMono-1d" transform="translate(662.234375 0)"/>
     <use xlink:href="#DejaVuSansMono-3" transform="translate(722.4375 0)"/>
     <use xlink:href="#DejaVuSansMono-14" transform="translate(782.640625 0)"/>
    </g>
   </g>
   <g id="text_33">
    <!-- Gaps : 0 -->
    <g transform="translate(696.494118 251.549187) scale(0.12 -0.12)">
     <defs>
      <path id="DejaVuSansMono-2a" d="M 3450 384 
Q 3197 150 2880 29 
Q 2563 -91 2194 -91 
Q 1306 -91 812 545 
Q 319 1181 319 2328 
Q 319 3472 819 4111 
Q 1319 4750 2209 4750 
Q 2503 4750 2772 4667 
Q 3041 4584 3291 4416 
L 3291 3769 
Q 3038 4009 2772 4123 
Q 2506 4238 2209 4238 
Q 1594 4238 1286 3761 
Q 978 3284 978 2328 
Q 978 1356 1276 889 
Q 1575 422 2194 422 
Q 2403 422 2561 470 
Q 2719 519 2847 622 
L 2847 1875 
L 2169 1875 
L 2169 2394 
L 3450 2394 
L 3450 384 
z
" transform="scale(0.015625)"/>
      <path id="DejaVuSansMono-53" d="M 1172 441 
L 1172 -1331 
L 594 -1331 
L 594 3500 
L 1172 3500 
L 1172 3053 
Q 1316 3313 1555 3448 
Q 1794 3584 2106 3584 
Q 2741 3584 3102 3093 
Q 3463 2603 3463 1734 
Q 3463 881 3100 395 
Q 2738 -91 2106 -91 
Q 1788 -91 1548 45 
Q 1309 181 1172 441 
z
M 2859 1747 
Q 2859 2416 2648 2756 
Q 2438 3097 2022 3097 
Q 1603 3097 1387 2755 
Q 1172 2413 1172 1747 
Q 1172 1084 1387 740 
Q 1603 397 2022 397 
Q 2438 397 2648 737 
Q 2859 1078 2859 1747 
z
" transform="scale(0.015625)"/>
      <path id="DejaVuSansMono-13" d="M 1509 2344 
Q 1509 2516 1629 2641 
Q 1750 2766 1919 2766 
Q 2094 2766 2219 2641 
Q 2344 2516 2344 2344 
Q 2344 2169 2220 2047 
Q 2097 1925 1919 1925 
Q 1744 1925 1626 2044 
Q 1509 2163 1509 2344 
z
M 1925 4250 
Q 1484 4250 1267 3775 
Q 1050 3300 1050 2328 
Q 1050 1359 1267 884 
Q 1484 409 1925 409 
Q 2369 409 2586 884 
Q 2803 1359 2803 2328 
Q 2803 3300 2586 3775 
Q 2369 4250 1925 4250 
z
M 1925 4750 
Q 2672 4750 3055 4137 
Q 3438 3525 3438 2328 
Q 3438 1134 3055 521 
Q 2672 -91 1925 -91 
Q 1178 -91 797 521 
Q 416 1134 416 2328 
Q 416 3525 797 4137 
Q 1178 4750 1925 4750 
z
" transform="scale(0.015625)"/>
     </defs>
     <use xlink:href="#DejaVuSansMono-2a"/>
     <use xlink:href="#DejaVuSansMono-44" transform="translate(60.203125 0)"/>
     <use xlink:href="#DejaVuSansMono-53" transform="translate(120.40625 0)"/>
     <use xlink:href="#DejaVuSansMono-56" transform="translate(180.609375 0)"/>
     <use xlink:href="#DejaVuSansMono-3" transform="translate(240.8125 0)"/>
     <use xlink:href="#DejaVuSansMono-1d" transform="translate(301.015625 0)"/>
     <use xlink:href="#DejaVuSansMono-3" transform="translate(361.21875 0)"/>
     <use xlink:href="#DejaVuSansMono-13" transform="translate(421.421875 0)"/>
    </g>
   </g>
   <g id="text_34">
    <!-- Optimal Global Alignment -->
    <g transform="translate(267.083438 20.877187) scale(0.18 -0.18)">
     <defs>
      <path id="DejaVuSans-Bold-32" d="M 2719 3878 
Q 2169 3878 1866 3472 
Q 1563 3066 1563 2328 
Q 1563 1594 1866 1187 
Q 2169 781 2719 781 
Q 3272 781 3575 1187 
Q 3878 1594 3878 2328 
Q 3878 3066 3575 3472 
Q 3272 3878 2719 3878 
z
M 2719 4750 
Q 3844 4750 4481 4106 
Q 5119 3463 5119 2328 
Q 5119 1197 4481 553 
Q 3844 -91 2719 -91 
Q 1597 -91 958 553 
Q 319 1197 319 2328 
Q 319 3463 958 4106 
Q 1597 4750 2719 4750 
z
" transform="scale(0.015625)"/>
      <path id="DejaVuSans-Bold-53" d="M 1656 506 
L 1656 -1331 
L 538 -1331 
L 538 3500 
L 1656 3500 
L 1656 2988 
Q 1888 3294 2169 3439 
Q 2450 3584 2816 3584 
Q 3463 3584 3878 3070 
Q 4294 2556 4294 1747 
Q 4294 938 3878 423 
Q 3463 -91 2816 -91 
Q 2450 -91 2169 54 
Q 1888 200 1656 506 
z
M 2400 2772 
Q 2041 2772 1848 2508 
Q 1656 2244 1656 1747 
Q 1656 1250 1848 986 
Q 2041 722 2400 722 
Q 2759 722 2948 984 
Q 3138 1247 3138 1747 
Q 3138 2247 2948 2509 
Q 2759 2772 2400 2772 
z
" transform="scale(0.015625)"/>
      <path id="DejaVuSans-Bold-57" d="M 1759 4494 
L 1759 3500 
L 2913 3500 
L 2913 2700 
L 1759 2700 
L 1759 1216 
Q 1759 972 1856 886 
Q 1953 800 2241 800 
L 2816 800 
L 2816 0 
L 1856 0 
Q 1194 0 917 276 
Q 641 553 641 1216 
L 641 2700 
L 84 2700 
L 84 3500 
L 641 3500 
L 641 4494 
L 1759 4494 
z
" transform="scale(0.015625)"/>
      <path id="DejaVuSans-Bold-4c" d="M 538 3500 
L 1656 3500 
L 1656 0 
L 538 0 
L 538 3500 
z
M 538 4863 
L 1656 4863 
L 1656 3950 
L 538 3950 
L 538 4863 
z
" transform="scale(0.015625)"/>
      <path id="DejaVuSans-Bold-50" d="M 3781 2919 
Q 3994 3244 4286 3414 
Q 4578 3584 4928 3584 
Q 5531 3584 5847 3212 
Q 6163 2841 6163 2131 
L 6163 0 
L 5038 0 
L 5038 1825 
Q 5041 1866 5042 1909 
Q 5044 1953 5044 2034 
Q 5044 2406 4934 2573 
Q 4825 2741 4581 2741 
Q 4263 2741 4089 2478 
Q 3916 2216 3909 1719 
L 3909 0 
L 2784 0 
L 2784 1825 
Q 2784 2406 2684 2573 
Q 2584 2741 2328 2741 
Q 2006 2741 1831 2477 
Q 1656 2213 1656 1722 
L 1656 0 
L 531 0 
L 531 3500 
L 1656 3500 
L 1656 2988 
Q 1863 3284 2130 3434 
Q 2397 3584 2719 3584 
Q 3081 3584 3359 3409 
Q 3638 3234 3781 2919 
z
" transform="scale(0.015625)"/>
      <path id="DejaVuSans-Bold-44" d="M 2106 1575 
Q 1756 1575 1579 1456 
Q 1403 1338 1403 1106 
Q 1403 894 1545 773 
Q 1688 653 1941 653 
Q 2256 653 2472 879 
Q 2688 1106 2688 1447 
L 2688 1575 
L 2106 1575 
z
M 3816 1997 
L 3816 0 
L 2688 0 
L 2688 519 
Q 2463 200 2181 54 
Q 1900 -91 1497 -91 
Q 953 -91 614 226 
Q 275 544 275 1050 
Q 275 1666 698 1953 
Q 1122 2241 2028 2241 
L 2688 2241 
L 2688 2328 
Q 2688 2594 2478 2717 
Q 2269 2841 1825 2841 
Q 1466 2841 1156 2769 
Q 847 2697 581 2553 
L 581 3406 
Q 941 3494 1303 3539 
Q 1666 3584 2028 3584 
Q 2975 3584 3395 3211 
Q 3816 2838 3816 1997 
z
" transform="scale(0.015625)"/>
      <path id="DejaVuSans-Bold-4f" d="M 538 4863 
L 1656 4863 
L 1656 0 
L 538 0 
L 538 4863 
z
" transform="scale(0.015625)"/>
      <path id="DejaVuSans-Bold-3" transform="scale(0.015625)"/>
      <path id="DejaVuSans-Bold-2a" d="M 4781 347 
Q 4331 128 3847 18 
Q 3363 -91 2847 -91 
Q 1681 -91 1000 561 
Q 319 1213 319 2328 
Q 319 3456 1012 4103 
Q 1706 4750 2913 4750 
Q 3378 4750 3804 4662 
Q 4231 4575 4609 4403 
L 4609 3438 
Q 4219 3659 3833 3768 
Q 3447 3878 3059 3878 
Q 2341 3878 1952 3476 
Q 1563 3075 1563 2328 
Q 1563 1588 1938 1184 
Q 2313 781 3003 781 
Q 3191 781 3352 804 
Q 3513 828 3641 878 
L 3641 1784 
L 2906 1784 
L 2906 2591 
L 4781 2591 
L 4781 347 
z
" transform="scale(0.015625)"/>
      <path id="DejaVuSans-Bold-52" d="M 2203 2784 
Q 1831 2784 1636 2517 
Q 1441 2250 1441 1747 
Q 1441 1244 1636 976 
Q 1831 709 2203 709 
Q 2569 709 2762 976 
Q 2956 1244 2956 1747 
Q 2956 2250 2762 2517 
Q 2569 2784 2203 2784 
z
M 2203 3584 
Q 3106 3584 3614 3096 
Q 4122 2609 4122 1747 
Q 4122 884 3614 396 
Q 3106 -91 2203 -91 
Q 1297 -91 786 396 
Q 275 884 275 1747 
Q 275 2609 786 3096 
Q 1297 3584 2203 3584 
z
" transform="scale(0.015625)"/>
      <path id="DejaVuSans-Bold-45" d="M 2400 722 
Q 2759 722 2948 984 
Q 3138 1247 3138 1747 
Q 3138 2247 2948 2509 
Q 2759 2772 2400 2772 
Q 2041 2772 1848 2508 
Q 1656 2244 1656 1747 
Q 1656 1250 1848 986 
Q 2041 722 2400 722 
z
M 1656 2988 
Q 1888 3294 2169 3439 
Q 2450 3584 2816 3584 
Q 3463 3584 3878 3070 
Q 4294 2556 4294 1747 
Q 4294 938 3878 423 
Q 3463 -91 2816 -91 
Q 2450 -91 2169 54 
Q 1888 200 1656 506 
L 1656 0 
L 538 0 
L 538 4863 
L 1656 4863 
L 1656 2988 
z
" transform="scale(0.015625)"/>
      <path id="DejaVuSans-Bold-24" d="M 3419 850 
L 1538 850 
L 1241 0 
L 31 0 
L 1759 4666 
L 3194 4666 
L 4922 0 
L 3713 0 
L 3419 850 
z
M 1838 1716 
L 3116 1716 
L 2478 3572 
L 1838 1716 
z
" transform="scale(0.015625)"/>
      <path id="DejaVuSans-Bold-4a" d="M 2919 594 
Q 2688 288 2409 144 
Q 2131 0 1766 0 
Q 1125 0 706 504 
Q 288 1009 288 1791 
Q 288 2575 706 3076 
Q 1125 3578 1766 3578 
Q 2131 3578 2409 3434 
Q 2688 3291 2919 2981 
L 2919 3500 
L 4044 3500 
L 4044 353 
Q 4044 -491 3511 -936 
Q 2978 -1381 1966 -1381 
Q 1638 -1381 1331 -1331 
Q 1025 -1281 716 -1178 
L 716 -306 
Q 1009 -475 1290 -558 
Q 1572 -641 1856 -641 
Q 2406 -641 2662 -400 
Q 2919 -159 2919 353 
L 2919 594 
z
M 2181 2772 
Q 1834 2772 1640 2515 
Q 1447 2259 1447 1791 
Q 1447 1309 1634 1061 
Q 1822 813 2181 813 
Q 2531 813 2725 1069 
Q 2919 1325 2919 1791 
Q 2919 2259 2725 2515 
Q 2531 2772 2181 2772 
z
" transform="scale(0.015625)"/>
      <path id="DejaVuSans-Bold-51" d="M 4056 2131 
L 4056 0 
L 2931 0 
L 2931 347 
L 2931 1631 
Q 2931 2084 2911 2256 
Q 2891 2428 2841 2509 
Q 2775 2619 2662 2680 
Q 2550 2741 2406 2741 
Q 2056 2741 1856 2470 
Q 1656 2200 1656 1722 
L 1656 0 
L 538 0 
L 538 3500 
L 1656 3500 
L 1656 2988 
Q 1909 3294 2193 3439 
Q 2478 3584 2822 3584 
Q 3428 3584 3742 3212 
Q 4056 2841 4056 2131 
z
" transform="scale(0.015625)"/>
      <path id="DejaVuSans-Bold-48" d="M 4031 1759 
L 4031 1441 
L 1416 1441 
Q 1456 1047 1700 850 
Q 1944 653 2381 653 
Q 2734 653 3104 758 
Q 3475 863 3866 1075 
L 3866 213 
Q 3469 63 3072 -14 
Q 2675 -91 2278 -91 
Q 1328 -91 801 392 
Q 275 875 275 1747 
Q 275 2603 792 3093 
Q 1309 3584 2216 3584 
Q 3041 3584 3536 3087 
Q 4031 2591 4031 1759 
z
M 2881 2131 
Q 2881 2450 2695 2645 
Q 2509 2841 2209 2841 
Q 1884 2841 1681 2658 
Q 1478 2475 1428 2131 
L 2881 2131 
z
" transform="scale(0.015625)"/>
     </defs>
     <use xlink:href="#DejaVuSans-Bold-32"/>
     <use xlink:href="#DejaVuSans-Bold-53" transform="translate(85.015625 0)"/>
     <use xlink:href="#DejaVuSans-Bold-57" transform="translate(156.59375 0)"/>
     <use xlink:href="#DejaVuSans-Bold-4c" transform="translate(204.390625 0)"/>
     <use xlink:href="#DejaVuSans-Bold-50" transform="translate(238.671875 0)"/>
     <use xlink:href="#DejaVuSans-Bold-44" transform="translate(342.875 0)"/>
     <use xlink:href="#DejaVuSans-Bold-4f" transform="translate(410.359375 0)"/>
     <use xlink:href="#DejaVuSans-Bold-3" transform="translate(444.640625 0)"/>
     <use xlink:href="#DejaVuSans-Bold-2a" transform="translate(479.453125 0)"/>
     <use xlink:href="#DejaVuSans-Bold-4f" transform="translate(561.53125 0)"/>
     <use xlink:href="#DejaVuSans-Bold-52" transform="translate(595.8125 0)"/>
     <use xlink:href="#DejaVuSans-Bold-45" transform="translate(664.515625 0)"/>
     <use xlink:href="#DejaVuSans-Bold-44" transform="translate(736.09375 0)"/>
     <use xlink:href="#DejaVuSans-Bold-4f" transform="translate(803.578125 0)"/>
     <use xlink:href="#DejaVuSans-Bold-3" transform="translate(837.859375 0)"/>
     <use xlink:href="#DejaVuSans-Bold-24" transform="translate(872.671875 0)"/>
     <use xlink:href="#DejaVuSans-Bold-4f" transform="translate(950.0625 0)"/>
     <use xlink:href="#DejaVuSans-Bold-4c" transform="translate(984.34375 0)"/>
     <use xlink:href="#DejaVuSans-Bold-4a" transform="translate(1018.625 0)"/>
     <use xlink:href="#DejaVuSans-Bold-51" transform="translate(1090.203125 0)"/>
     <use xlink:href="#DejaVuSans-Bold-50" transform="translate(1161.390625 0)"/>
     <use xlink:href="#DejaVuSans-Bold-48" transform="translate(1265.59375 0)"/>
     <use xlink:href="#DejaVuSans-Bold-51" transform="translate(1333.421875 0)"/>
     <use xlink:href="#DejaVuSans-Bold-57" transform="translate(1404.609375 0)"/>
    </g>
   </g>
  </g>
 </g>
</svg>
